<svg width="118" height="57" viewBox="0 0 118 57" fill="none" xmlns="http://www.w3.org/2000/svg">
<g clip-path="url(#clip0_7_408)">
<path d="M53.03 56.65H3.62C1.62 56.65 0 55.03 0 53.03V3.62C0 1.62 1.62 0 3.62 0H53.03C55.03 0 56.65 1.62 56.65 3.62V53.03C56.65 55.03 55.03 56.65 53.03 56.65ZM3.62 3C3.28 3 3 3.28 3 3.62V53.03C3 53.37 3.28 53.65 3.62 53.65H53.03C53.37 53.65 53.65 53.37 53.65 53.03V3.62C53.65 3.28 53.37 3 53.03 3H3.62Z" fill="black"/>
<path d="M114.02 56.65H64.61C62.61 56.65 60.99 55.03 60.99 53.03V3.62C60.99 1.62 62.61 0 64.61 0H114.02C116.02 0 117.64 1.62 117.64 3.62V53.03C117.64 55.03 116.02 56.65 114.02 56.65ZM64.61 3C64.27 3 63.99 3.28 63.99 3.62V53.03C63.99 53.37 64.27 53.65 64.61 53.65H114.02C114.36 53.65 114.64 53.37 114.64 53.03V3.62C114.64 3.28 114.36 3 114.02 3H64.61Z" fill="black"/>
<path d="M26.95 48.36H24.49L22.11 42.99H11.06L8.64999 48.36H6.29999L15.55 27.92H17.7L26.95 48.36ZM16.6 30.61L11.96 40.96H21.21L16.6 30.61Z" fill="black"/>
<path d="M31.07 48.36H28.84V33.37H31.07V37.29C31.34 36.67 31.68 36.1 32.09 35.58C32.5 35.06 32.96 34.61 33.48 34.23C34 33.85 34.57 33.57 35.19 33.37C35.81 33.18 36.48 33.09 37.19 33.11V35.52H37.02C36.21 35.52 35.44 35.67 34.71 35.96C33.98 36.25 33.35 36.69 32.81 37.27C32.27 37.85 31.84 38.57 31.53 39.43C31.22 40.29 31.07 41.28 31.07 42.4V48.37V48.36Z" fill="black"/>
<path d="M43.59 44.1C43.59 45.03 43.82 45.68 44.29 46.04C44.76 46.4 45.36 46.59 46.12 46.59C46.51 46.59 46.87 46.55 47.21 46.47C47.55 46.39 47.91 46.26 48.3 46.06V47.97C47.91 48.18 47.5 48.34 47.07 48.45C46.64 48.56 46.15 48.61 45.61 48.61C45.01 48.61 44.45 48.53 43.93 48.38C43.41 48.23 42.96 47.98 42.58 47.64C42.2 47.3 41.91 46.86 41.7 46.32C41.49 45.78 41.38 45.13 41.38 44.38V35.33H39.29V33.36H41.38V28.84H43.61V33.36H48.37V35.33H43.61V44.09L43.59 44.1Z" fill="black"/>
<path d="M10.23 8.95C9.80001 9.26 9.38001 9.7 8.96001 10.29L8.09001 9.66C8.33001 9.31 8.57001 9 8.82001 8.72C9.07001 8.44 9.34002 8.21 9.64002 8.02C9.93002 7.83 10.26 7.69 10.63 7.59C10.99 7.49 11.41 7.44 11.87 7.44C12.33 7.44 12.79 7.51 13.18 7.67C13.58 7.82 13.92 8.03 14.21 8.29C14.5 8.56 14.72 8.87 14.88 9.24C15.04 9.61 15.12 10 15.12 10.43C15.12 10.82 15.07 11.18 14.96 11.49C14.86 11.81 14.69 12.13 14.47 12.44C14.25 12.75 13.97 13.08 13.64 13.42C13.31 13.76 12.91 14.12 12.45 14.52L9.65001 17.01H15.21V18.09H7.89001V17.17L11.7 13.8C12.1 13.44 12.44 13.11 12.72 12.82C13 12.53 13.23 12.26 13.4 12C13.57 11.74 13.7 11.49 13.78 11.25C13.86 11 13.89 10.75 13.89 10.49C13.89 10.18 13.83 9.9 13.72 9.66C13.61 9.41 13.45 9.2 13.26 9.03C13.07 8.86 12.84 8.72 12.59 8.62C12.33 8.52 12.06 8.48 11.78 8.48C11.18 8.48 10.66 8.63 10.24 8.94L10.23 8.95Z" fill="black"/>
<path d="M25.34 14.93C25.13 15.59 24.83 16.17 24.45 16.66C24.07 17.15 23.6 17.55 23.05 17.84C22.5 18.13 21.89 18.28 21.22 18.28C20.55 18.28 19.93 18.14 19.38 17.85C18.83 17.56 18.37 17.18 17.98 16.68C17.59 16.18 17.3 15.61 17.09 14.95C16.88 14.3 16.78 13.6 16.78 12.86C16.78 12.12 16.88 11.42 17.09 10.76C17.3 10.1 17.6 9.52 17.98 9.03C18.36 8.53 18.83 8.14 19.38 7.85C19.93 7.56 20.55 7.41 21.22 7.41C21.89 7.41 22.5 7.55 23.04 7.84C23.58 8.13 24.05 8.51 24.44 9.01C24.82 9.51 25.12 10.08 25.32 10.74C25.52 11.4 25.63 12.09 25.63 12.83C25.63 13.57 25.53 14.27 25.32 14.93H25.34ZM24.2 11.2C24.05 10.68 23.83 10.21 23.55 9.81C23.27 9.41 22.93 9.09 22.54 8.85C22.14 8.61 21.7 8.49 21.21 8.49C20.72 8.49 20.28 8.61 19.88 8.84C19.48 9.08 19.15 9.39 18.88 9.78C18.61 10.18 18.39 10.64 18.24 11.16C18.09 11.68 18.02 12.24 18.02 12.82C18.02 13.4 18.09 13.96 18.24 14.49C18.39 15.02 18.61 15.49 18.89 15.89C19.17 16.29 19.51 16.61 19.91 16.84C20.31 17.07 20.76 17.19 21.24 17.19C21.72 17.19 22.17 17.07 22.57 16.84C22.97 16.61 23.3 16.29 23.57 15.9C23.84 15.51 24.06 15.04 24.2 14.52C24.34 14 24.42 13.44 24.42 12.86C24.42 12.28 24.35 11.73 24.19 11.2H24.2Z" fill="black"/>
<path d="M71.14 8.95C70.71 9.26 70.29 9.7 69.87 10.29L69 9.66C69.24 9.31 69.48 9 69.73 8.72C69.98 8.44 70.25 8.21 70.55 8.02C70.84 7.83 71.17 7.69 71.54 7.59C71.9 7.49 72.32 7.44 72.78 7.44C73.24 7.44 73.7 7.51 74.09 7.67C74.49 7.82 74.83 8.03 75.12 8.29C75.41 8.56 75.63 8.87 75.79 9.24C75.95 9.61 76.03 10 76.03 10.43C76.03 10.82 75.98 11.18 75.87 11.49C75.77 11.81 75.6 12.13 75.38 12.44C75.16 12.75 74.88 13.08 74.55 13.42C74.22 13.76 73.82 14.12 73.36 14.52L70.56 17.01H76.12V18.09H68.79V17.17L72.6 13.8C73 13.44 73.34 13.11 73.62 12.82C73.9 12.53 74.13 12.26 74.3 12C74.47 11.74 74.6 11.49 74.68 11.25C74.76 11 74.79 10.75 74.79 10.49C74.79 10.18 74.73 9.9 74.62 9.66C74.51 9.41 74.35 9.2 74.16 9.03C73.97 8.86 73.74 8.72 73.49 8.62C73.23 8.52 72.96 8.48 72.68 8.48C72.08 8.48 71.56 8.63 71.14 8.94V8.95Z" fill="black"/>
<path d="M78.07 8.65001V7.60001H84.76V8.47001L81.47 12.13C81.93 12.17 82.37 12.26 82.79 12.39C83.21 12.52 83.58 12.7 83.89 12.94C84.2 13.18 84.45 13.48 84.64 13.84C84.83 14.2 84.92 14.62 84.92 15.1C84.92 15.58 84.83 16 84.65 16.39C84.47 16.78 84.22 17.12 83.91 17.39C83.6 17.67 83.23 17.89 82.8 18.04C82.37 18.2 81.92 18.27 81.43 18.27C80.55 18.27 79.78 18.1 79.14 17.75C78.49 17.4 77.95 16.95 77.52 16.39L78.37 15.62C78.78 16.12 79.23 16.5 79.73 16.77C80.23 17.04 80.8 17.18 81.45 17.18C81.77 17.18 82.07 17.13 82.35 17.04C82.63 16.95 82.87 16.81 83.08 16.63C83.28 16.45 83.45 16.23 83.57 15.98C83.69 15.73 83.75 15.44 83.75 15.13C83.75 14.47 83.48 13.97 82.93 13.61C82.38 13.26 81.68 13.09 80.81 13.09H80.13L79.89 12.38L83.2 8.63001H78.07V8.65001Z" fill="black"/>
<path d="M73.01 34.42C73.16 34.81 73.45 35.16 73.85 35.48C74.26 35.8 74.82 36.09 75.53 36.35C76.24 36.61 77.16 36.86 78.28 37.09C80.54 37.59 82.21 38.29 83.28 39.18C84.35 40.07 84.89 41.3 84.89 42.87C84.89 43.74 84.72 44.54 84.37 45.25C84.03 45.97 83.55 46.58 82.95 47.08C82.35 47.58 81.62 47.97 80.77 48.24C79.92 48.51 78.99 48.65 77.99 48.65C76.37 48.65 74.88 48.39 73.54 47.86C72.2 47.34 70.92 46.53 69.7 45.43L71.12 43.75C72.18 44.72 73.26 45.44 74.34 45.91C75.42 46.38 76.67 46.62 78.08 46.62C79.49 46.62 80.55 46.3 81.37 45.66C82.19 45.02 82.6 44.18 82.6 43.13C82.6 42.65 82.52 42.22 82.37 41.84C82.21 41.46 81.94 41.12 81.56 40.81C81.17 40.5 80.63 40.22 79.95 39.97C79.26 39.72 78.39 39.48 77.32 39.24C76.16 38.99 75.14 38.7 74.28 38.37C73.42 38.04 72.7 37.64 72.14 37.18C71.58 36.72 71.16 36.17 70.89 35.55C70.62 34.93 70.48 34.19 70.48 33.34C70.48 32.49 70.64 31.78 70.97 31.1C71.3 30.42 71.76 29.84 72.36 29.34C72.96 28.85 73.67 28.46 74.48 28.18C75.29 27.9 76.18 27.76 77.15 27.76C78.64 27.76 79.94 27.97 81.05 28.37C82.16 28.77 83.24 29.4 84.28 30.22L82.95 31.99C82 31.22 81.05 30.66 80.09 30.31C79.13 29.96 78.13 29.79 77.09 29.79C76.43 29.79 75.84 29.88 75.31 30.05C74.78 30.22 74.32 30.46 73.95 30.75C73.58 31.04 73.28 31.39 73.08 31.8C72.88 32.21 72.78 32.64 72.78 33.11C72.78 33.58 72.86 34.03 73.01 34.42Z" fill="black"/>
<path d="M98.34 47.89C97.38 48.44 96.2 48.71 94.79 48.71C93.69 48.71 92.67 48.5 91.73 48.09C90.79 47.67 89.98 47.11 89.29 46.41C88.6 45.7 88.07 44.88 87.68 43.93C87.29 42.98 87.1 41.98 87.1 40.91C87.1 39.84 87.29 38.84 87.68 37.88C88.07 36.92 88.6 36.09 89.29 35.37C89.98 34.66 90.79 34.09 91.73 33.67C92.67 33.25 93.69 33.05 94.79 33.05C95.5 33.05 96.15 33.12 96.73 33.25C97.31 33.38 97.84 33.57 98.33 33.82C98.81 34.06 99.26 34.35 99.66 34.68C100.07 35.01 100.44 35.36 100.79 35.72L99.31 37.29C98.71 36.67 98.06 36.14 97.35 35.7C96.64 35.26 95.78 35.03 94.75 35.03C94 35.03 93.29 35.18 92.63 35.48C91.97 35.78 91.4 36.19 90.92 36.72C90.44 37.25 90.06 37.87 89.79 38.57C89.52 39.27 89.38 40.03 89.38 40.84C89.38 41.65 89.52 42.41 89.8 43.13C90.08 43.84 90.47 44.47 90.96 45C91.45 45.53 92.03 45.94 92.7 46.24C93.37 46.54 94.1 46.69 94.89 46.69C95.86 46.69 96.71 46.48 97.46 46.05C98.2 45.62 98.88 45.09 99.48 44.45L100.9 45.78C100.15 46.63 99.29 47.34 98.33 47.89H98.34Z" fill="black"/>
<path d="M104.07 30.09V27.63H106.62V30.09H104.07ZM104.22 48.36V33.37H106.45V48.36H104.22Z" fill="black"/>
</g>
<defs>
<clipPath id="clip0_7_408">
<rect width="117.63" height="56.65" fill="white"/>
</clipPath>
</defs>
</svg>
