<?xml version="1.0" encoding="utf-8"?>
<!-- Generator: Adobe Illustrator 27.0.1, SVG Export Plug-In . SVG Version: 6.00 Build 0)  -->
<svg version="1.1" id="Layer_1" xmlns="http://www.w3.org/2000/svg" xmlns:xlink="http://www.w3.org/1999/xlink" x="0px" y="0px"
	 viewBox="0 0 118 57" style="enable-background:new 0 0 118 57;" xml:space="preserve">
<style type="text/css">
	.st0{fill:#FFFFFF;}
</style>
<path class="st0" d="M53,56.7H3.6C1.6,56.7,0,55,0,53V3.6C0,1.6,1.6,0,3.6,0H53c2,0,3.6,1.6,3.6,3.6V53C56.7,55,55,56.7,53,56.7z
	 M3.6,3C3.3,3,3,3.3,3,3.6V53c0,0.3,0.3,0.6,0.6,0.6H53c0.3,0,0.6-0.3,0.6-0.6V3.6C53.7,3.3,53.4,3,53,3H3.6z"/>
<path class="st0" d="M114,56.7H64.6c-2,0-3.6-1.6-3.6-3.6V3.6c0-2,1.6-3.6,3.6-3.6H114c2,0,3.6,1.6,3.6,3.6V53
	C117.6,55,116,56.7,114,56.7z M64.6,3C64.3,3,64,3.3,64,3.6V53c0,0.3,0.3,0.6,0.6,0.6H114c0.3,0,0.6-0.3,0.6-0.6V3.6
	c0-0.3-0.3-0.6-0.6-0.6H64.6z"/>
<path class="st0" d="M27,48.4h-2.5L22.1,43H11.1l-2.4,5.4H6.3l9.3-20.4h2.2L27,48.4z M16.6,30.6L12,41h9.2L16.6,30.6z"/>
<path class="st0" d="M31.1,48.4h-2.2v-15h2.2v3.9c0.3-0.6,0.6-1.2,1-1.7c0.4-0.5,0.9-1,1.4-1.4s1.1-0.7,1.7-0.9
	c0.6-0.2,1.3-0.3,2-0.3v2.4H37c-0.8,0-1.6,0.1-2.3,0.4s-1.4,0.7-1.9,1.3c-0.5,0.6-1,1.3-1.3,2.2c-0.3,0.9-0.5,1.8-0.5,3V48.4
	L31.1,48.4z"/>
<path class="st0" d="M43.6,44.1c0,0.9,0.2,1.6,0.7,1.9c0.5,0.4,1.1,0.5,1.8,0.5c0.4,0,0.8,0,1.1-0.1c0.3-0.1,0.7-0.2,1.1-0.4V48
	c-0.4,0.2-0.8,0.4-1.2,0.5s-0.9,0.2-1.5,0.2c-0.6,0-1.2-0.1-1.7-0.2c-0.5-0.2-1-0.4-1.3-0.7c-0.4-0.3-0.7-0.8-0.9-1.3
	s-0.3-1.2-0.3-1.9v-9h-2.1v-2h2.1v-4.5h2.2v4.5h4.8v2h-4.8L43.6,44.1L43.6,44.1z"/>
<path class="st0" d="M10.2,8.9C9.8,9.3,9.4,9.7,9,10.3L8.1,9.7C8.3,9.3,8.6,9,8.8,8.7C9.1,8.4,9.3,8.2,9.6,8c0.3-0.2,0.6-0.3,1-0.4
	c0.4-0.1,0.8-0.2,1.2-0.2s0.9,0.1,1.3,0.2c0.4,0.2,0.7,0.4,1,0.6c0.3,0.3,0.5,0.6,0.7,0.9s0.2,0.8,0.2,1.2c0,0.4-0.1,0.8-0.2,1.1
	c-0.1,0.3-0.3,0.6-0.5,0.9c-0.2,0.3-0.5,0.6-0.8,1s-0.7,0.7-1.2,1.1L9.7,17h5.6v1.1H7.9v-0.9l3.8-3.4c0.4-0.4,0.7-0.7,1-1
	c0.3-0.3,0.5-0.6,0.7-0.8s0.3-0.5,0.4-0.8c0.1-0.2,0.1-0.5,0.1-0.8c0-0.3-0.1-0.6-0.2-0.8c-0.1-0.2-0.3-0.5-0.5-0.6
	c-0.2-0.2-0.4-0.3-0.7-0.4c-0.3-0.1-0.5-0.1-0.8-0.1C11.2,8.5,10.7,8.6,10.2,8.9L10.2,8.9z"/>
<path class="st0" d="M25.3,14.9c-0.2,0.7-0.5,1.2-0.9,1.7c-0.4,0.5-0.9,0.9-1.4,1.2c-0.5,0.3-1.2,0.4-1.8,0.4s-1.3-0.1-1.8-0.4
	c-0.5-0.3-1-0.7-1.4-1.2c-0.4-0.5-0.7-1.1-0.9-1.7c-0.2-0.6-0.3-1.3-0.3-2.1c0-0.7,0.1-1.4,0.3-2.1c0.2-0.7,0.5-1.2,0.9-1.7
	c0.4-0.5,0.9-0.9,1.4-1.2c0.6-0.3,1.2-0.4,1.8-0.4s1.3,0.1,1.8,0.4c0.5,0.3,1,0.7,1.4,1.2c0.4,0.5,0.7,1.1,0.9,1.7
	c0.2,0.7,0.3,1.4,0.3,2.1S25.5,14.3,25.3,14.9L25.3,14.9z M24.2,11.2c-0.2-0.5-0.4-1-0.7-1.4c-0.3-0.4-0.6-0.7-1-1
	c-0.4-0.2-0.8-0.4-1.3-0.4c-0.5,0-0.9,0.1-1.3,0.4c-0.4,0.2-0.7,0.6-1,0.9c-0.3,0.4-0.5,0.9-0.6,1.4c-0.1,0.5-0.2,1.1-0.2,1.7
	s0.1,1.1,0.2,1.7c0.1,0.5,0.4,1,0.6,1.4c0.3,0.4,0.6,0.7,1,0.9s0.9,0.4,1.3,0.4s0.9-0.1,1.3-0.4s0.7-0.5,1-0.9
	c0.3-0.4,0.5-0.9,0.6-1.4c0.1-0.5,0.2-1.1,0.2-1.7S24.4,11.7,24.2,11.2L24.2,11.2z"/>
<path class="st0" d="M71.1,8.9c-0.4,0.3-0.8,0.8-1.3,1.3L69,9.7c0.2-0.3,0.5-0.7,0.7-0.9C70,8.4,70.2,8.2,70.6,8
	c0.3-0.2,0.6-0.3,1-0.4c0.4-0.1,0.8-0.2,1.2-0.2s0.9,0.1,1.3,0.2c0.4,0.2,0.7,0.4,1,0.6c0.3,0.3,0.5,0.6,0.7,0.9
	C75.9,9.6,76,10,76,10.4c0,0.4,0,0.8-0.2,1.1c-0.1,0.3-0.3,0.6-0.5,0.9c-0.2,0.3-0.5,0.6-0.8,1c-0.3,0.3-0.7,0.7-1.2,1.1L70.6,17
	h5.6v1.1h-7.3v-0.9l3.8-3.4c0.4-0.4,0.7-0.7,1-1c0.3-0.3,0.5-0.6,0.7-0.8c0.2-0.3,0.3-0.5,0.4-0.8c0.1-0.2,0.1-0.5,0.1-0.8
	c0-0.3-0.1-0.6-0.2-0.8c-0.1-0.2-0.3-0.5-0.5-0.6c-0.2-0.2-0.4-0.3-0.7-0.4c-0.3-0.1-0.5-0.1-0.8-0.1C72.1,8.5,71.6,8.6,71.1,8.9
	L71.1,8.9z"/>
<path class="st0" d="M78.1,8.7V7.6h6.7v0.9l-3.3,3.7c0.5,0,0.9,0.1,1.3,0.3s0.8,0.3,1.1,0.5c0.3,0.2,0.6,0.5,0.8,0.9
	c0.2,0.4,0.3,0.8,0.3,1.3c0,0.5-0.1,0.9-0.3,1.3c-0.2,0.4-0.4,0.7-0.7,1c-0.3,0.3-0.7,0.5-1.1,0.7c-0.4,0.2-0.9,0.2-1.4,0.2
	c-0.9,0-1.7-0.2-2.3-0.5c-0.7-0.4-1.2-0.8-1.6-1.4l0.9-0.8c0.4,0.5,0.9,0.9,1.4,1.2s1.1,0.4,1.7,0.4c0.3,0,0.6-0.1,0.9-0.1
	c0.3-0.1,0.5-0.2,0.7-0.4c0.2-0.2,0.4-0.4,0.5-0.6s0.2-0.5,0.2-0.8c0-0.7-0.3-1.2-0.8-1.5c-0.6-0.3-1.2-0.5-2.1-0.5h-0.7l-0.2-0.7
	l3.3-3.7L78.1,8.7L78.1,8.7z"/>
<path class="st0" d="M73,34.4c0.2,0.4,0.4,0.7,0.8,1.1c0.4,0.3,1,0.6,1.7,0.9c0.7,0.3,1.6,0.5,2.8,0.7c2.3,0.5,3.9,1.2,5,2.1
	s1.6,2.1,1.6,3.7c0,0.9-0.2,1.7-0.5,2.4c-0.3,0.7-0.8,1.3-1.4,1.8c-0.6,0.5-1.3,0.9-2.2,1.2c-0.8,0.3-1.8,0.4-2.8,0.4
	c-1.6,0-3.1-0.3-4.4-0.8c-1.3-0.5-2.6-1.3-3.8-2.4l1.4-1.7c1.1,1,2.1,1.7,3.2,2.2c1.1,0.5,2.3,0.7,3.7,0.7c1.4,0,2.5-0.3,3.3-1
	s1.2-1.5,1.2-2.5c0-0.5-0.1-0.9-0.2-1.3c-0.2-0.4-0.4-0.7-0.8-1c-0.4-0.3-0.9-0.6-1.6-0.8c-0.7-0.2-1.6-0.5-2.6-0.7
	c-1.2-0.2-2.2-0.5-3-0.9c-0.9-0.3-1.6-0.7-2.1-1.2s-1-1-1.2-1.6c-0.3-0.6-0.4-1.4-0.4-2.2s0.2-1.6,0.5-2.2s0.8-1.3,1.4-1.8
	c0.6-0.5,1.3-0.9,2.1-1.2c0.8-0.3,1.7-0.4,2.7-0.4c1.5,0,2.8,0.2,3.9,0.6c1.1,0.4,2.2,1,3.2,1.8L82.9,32c-0.9-0.8-1.9-1.3-2.9-1.7
	c-1-0.4-2-0.5-3-0.5c-0.7,0-1.2,0.1-1.8,0.3s-1,0.4-1.4,0.7c-0.4,0.3-0.7,0.6-0.9,1c-0.2,0.4-0.3,0.8-0.3,1.3S72.9,34,73,34.4z"/>
<path class="st0" d="M98.3,47.9c-1,0.5-2.1,0.8-3.5,0.8c-1.1,0-2.1-0.2-3.1-0.6c-0.9-0.4-1.8-1-2.4-1.7c-0.7-0.7-1.2-1.5-1.6-2.5
	s-0.6-2-0.6-3s0.2-2.1,0.6-3c0.4-1,0.9-1.8,1.6-2.5c0.7-0.7,1.5-1.3,2.4-1.7c0.9-0.4,2-0.6,3.1-0.6c0.7,0,1.4,0.1,1.9,0.2
	c0.6,0.1,1.1,0.3,1.6,0.6c0.5,0.2,0.9,0.5,1.3,0.9c0.4,0.3,0.8,0.7,1.1,1l-1.5,1.6c-0.6-0.6-1.2-1.2-2-1.6c-0.7-0.4-1.6-0.7-2.6-0.7
	c-0.8,0-1.5,0.2-2.1,0.5c-0.7,0.3-1.2,0.7-1.7,1.2c-0.5,0.5-0.9,1.1-1.1,1.8c-0.3,0.7-0.4,1.5-0.4,2.3s0.1,1.6,0.4,2.3
	c0.3,0.7,0.7,1.3,1.2,1.9s1.1,0.9,1.7,1.2c0.7,0.3,1.4,0.4,2.2,0.4c1,0,1.8-0.2,2.6-0.6c0.7-0.4,1.4-1,2-1.6l1.4,1.3
	C100.2,46.6,99.3,47.3,98.3,47.9L98.3,47.9z"/>
<path class="st0" d="M104.1,30.1v-2.5h2.6v2.5H104.1z M104.2,48.4v-15h2.2v15H104.2z"/>
</svg>
